<svg xmlns="http://www.w3.org/2000/svg" viewBox="0 0 1600 1050" width="1600" height="1050">
<rect width="1600" height="1050" fill="#fafbfc" />
<defs><marker id="as" viewBox="0 0 10 10" refX="10" refY="5" markerWidth="6" markerHeight="6" orient="auto-start-reverse"><path d="M0 0L10 5L0 10z" fill="#5a6c7d"/></marker><marker id="ad" viewBox="0 0 10 10" refX="10" refY="5" markerWidth="6" markerHeight="6" orient="auto-start-reverse"><path d="M0 0L10 5L0 10z" fill="#8b9bac"/></marker></defs>
<path d="M262.4,180C322.4,180 164.0,135 224.0,135" stroke="#5a6c7d" stroke-width="1.4" fill="none"  marker-end="url(#as)" opacity="0.7"/>
<path d="M320.0,145.0C380.0,145.0 317.6,180 377.6,180" stroke="#5a6c7d" stroke-width="1.4" fill="none"  marker-end="url(#as)" opacity="0.7"/>
<path d="M320.0,125.0C380.0,125.0 356.0,90 416.0,90" stroke="#5a6c7d" stroke-width="1.4" fill="none"  marker-end="url(#as)" opacity="0.7"/>
<path d="M320.0,135.0C380.0,135.0 336.8,135 396.8,135" stroke="#5a6c7d" stroke-width="1.4" fill="none"  marker-end="url(#as)" opacity="0.7"/>
<path d="M492.8,135C552.8,135 394.4,215.0 454.4,215.0" stroke="#5a6c7d" stroke-width="1.4" fill="none"  marker-end="url(#as)" opacity="0.7"/>
<path d="M473.6,180C533.6,180 394.4,235.0 454.4,235.0" stroke="#5a6c7d" stroke-width="1.4" fill="none"  marker-end="url(#as)" opacity="0.7"/>
<path d="M512.0,80.0C572.0,80.0 548.0,180 608.0,180" stroke="#5a6c7d" stroke-width="1.4" fill="none"  marker-end="url(#as)" opacity="0.7"/>
<path d="M512.0,100.0C665.6,100.0 742.4,335 896.0,335" stroke="#5a6c7d" stroke-width="1.4" fill="none"  marker-end="url(#as)" opacity="0.7"/>
<path d="M550.4,229.28571428571428C610.4,229.28571428571428 605.6,370.0 665.6,370.0" stroke="#5a6c7d" stroke-width="1.4" fill="none"  marker-end="url(#as)" opacity="0.7"/>
<path d="M550.4,226.42857142857142C610.4,226.42857142857142 624.8,325.0 684.8,325.0" stroke="#5a6c7d" stroke-width="1.4" fill="none"  marker-end="url(#as)" opacity="0.7"/>
<path d="M550.4,232.14285714285714C688.64,232.14285714285714 757.76,370.0 896.0,370.0" stroke="#5a6c7d" stroke-width="1.4" fill="none"  marker-end="url(#as)" opacity="0.7"/>
<path d="M550.4,235.0C727.04,235.0 815.36,415.0 992.0,415.0" stroke="#5a6c7d" stroke-width="1.4" fill="none"  marker-end="url(#as)" opacity="0.7"/>
<path d="M550.4,217.85714285714286C796.16,217.85714285714286 919.04,180 1164.8,180" stroke="#5a6c7d" stroke-width="1.4" fill="none"  marker-end="url(#as)" opacity="0.7"/>
<path d="M550.4,223.57142857142858C734.72,223.57142857142858 826.88,280.0 1011.2,280.0" stroke="#5a6c7d" stroke-width="1.4" fill="none"  marker-end="url(#as)" opacity="0.7"/>
<path d="M550.4,220.71428571428572C849.9200000000001,220.71428571428572 999.6800000000001,225 1299.2,225" stroke="#5a6c7d" stroke-width="1.4" fill="none"  marker-end="url(#as)" opacity="0.7"/>
<path d="M454.4,370.0C514.4,370.0 394.4,335 454.4,335" stroke="#5a6c7d" stroke-width="1.4" fill="none"  marker-end="url(#as)" opacity="0.7"/>
<path d="M454.4,390.0C538.88,390.0 581.12,390.0 665.6,390.0" stroke="#5a6c7d" stroke-width="1.4" fill="none"  marker-end="url(#as)" opacity="0.7"/>
<path d="M550.4,325.0C610.4,325.0 624.8,345.0 684.8,345.0" stroke="#5a6c7d" stroke-width="1.4" fill="none"  marker-end="url(#as)" opacity="0.7"/>
<path d="M550.4,335.0C688.64,335.0 757.76,725.0 896.0,725.0" stroke="#5a6c7d" stroke-width="1.4" fill="none"  marker-end="url(#as)" opacity="0.7"/>
<path d="M761.6,383.3333333333333C821.6,383.3333333333333 836.0,390.0 896.0,390.0" stroke="#5a6c7d" stroke-width="1.4" fill="none"  marker-end="url(#as)" opacity="0.7"/>
<path d="M761.6,390.0C853.76,390.0 899.84,425.0 992.0,425.0" stroke="#5a6c7d" stroke-width="1.4" fill="none"  marker-end="url(#as)" opacity="0.7"/>
<path d="M761.6,376.6666666666667C861.44,376.6666666666667 911.36,300.0 1011.2,300.0" stroke="#5a6c7d" stroke-width="1.4" fill="none"  marker-end="url(#as)" opacity="0.7"/>
<path d="M780.8,335C972.8,335 1068.8,380 1260.8,380" stroke="#5a6c7d" stroke-width="1.4" fill="none"  marker-end="url(#as)" opacity="0.7"/>
<path d="M992.0,380.0C1052.0,380.0 1008.8,370.0 1068.8,370.0" stroke="#5a6c7d" stroke-width="1.4" fill="none"  marker-end="url(#as)" opacity="0.7"/>
<path d="M992.0,370.0C1076.48,370.0 1118.72,335 1203.2,335" stroke="#5a6c7d" stroke-width="1.4" fill="none"  marker-end="url(#as)" opacity="0.7"/>
<path d="M281.6,570.0C373.76,570.0 419.84000000000003,535 512.0,535" stroke="#5a6c7d" stroke-width="1.4" fill="none"  marker-end="url(#as)" opacity="0.7"/>
<path d="M569.6,580C629.6,580 624.8,590.0 684.8,590.0" stroke="#5a6c7d" stroke-width="1.4" fill="none"  marker-end="url(#as)" opacity="0.7"/>
<path d="M780.8,590.0C840.8,590.0 855.2,580 915.2,580" stroke="#5a6c7d" stroke-width="1.4" fill="none"  marker-end="url(#as)" opacity="0.7"/>
<path d="M780.8,570.0C840.8,570.0 740.0,535 800.0,535" stroke="#5a6c7d" stroke-width="1.4" fill="none"  marker-end="url(#as)" opacity="0.7"/>
<path d="M992.0,870C1084.16,870 1130.24,780 1222.4,780" stroke="#5a6c7d" stroke-width="1.4" fill="none"  marker-end="url(#as)" opacity="0.7"/>
<path d="M665.6,940C725.6,940 663.2,940 723.2,940" stroke="#5a6c7d" stroke-width="1.4" fill="none"  marker-end="url(#as)" opacity="0.7"/>
<path d="M819.2,940C972.8000000000001,940 1049.6,950.0 1203.2,950.0" stroke="#5a6c7d" stroke-width="1.4" fill="none"  marker-end="url(#as)" opacity="0.7"/>
<path d="M550.4,345.0C619.52,345.0 654.08,780 723.2,780" stroke="#8b9bac" stroke-width="1.4" fill="none" stroke-dasharray="4,4" marker-end="url(#ad)" opacity="0.7"/>
<path d="M281.6,590.0C358.40000000000003,590.0 396.8,580 473.6,580" stroke="#8b9bac" stroke-width="1.4" fill="none" stroke-dasharray="4,4" marker-end="url(#ad)" opacity="0.7"/>
<path d="M608.0,525.0C668.0,525.0 624.8,570.0 684.8,570.0" stroke="#8b9bac" stroke-width="1.4" fill="none" stroke-dasharray="4,4" marker-end="url(#ad)" opacity="0.7"/>
<path d="M896.0,545.0C965.12,545.0 999.68,390.0 1068.8,390.0" stroke="#8b9bac" stroke-width="1.4" fill="none" stroke-dasharray="4,4" marker-end="url(#ad)" opacity="0.7"/>
<path d="M819.2,780C879.2,780 836.0,880.0 896.0,880.0" stroke="#8b9bac" stroke-width="1.4" fill="none" stroke-dasharray="4,4" marker-end="url(#ad)" opacity="0.7"/>
<path d="M838.4,745.0C898.4,745.0 759.2,825 819.2,825" stroke="#8b9bac" stroke-width="1.4" fill="none" stroke-dasharray="4,4" marker-end="url(#ad)" opacity="0.7"/>
<path d="M838.4,725.0C898.4,725.0 836.0,745.0 896.0,745.0" stroke="#8b9bac" stroke-width="1.4" fill="none" stroke-dasharray="4,4" marker-end="url(#ad)" opacity="0.7"/>
<path d="M838.4,735.0C898.4,735.0 816.8,780 876.8,780" stroke="#8b9bac" stroke-width="1.4" fill="none" stroke-dasharray="4,4" marker-end="url(#ad)" opacity="0.7"/>
<path d="M915.2,825C1038.0800000000002,825 1099.52,580 1222.4,580" stroke="#8b9bac" stroke-width="1.4" fill="none" stroke-dasharray="4,4" marker-end="url(#ad)" opacity="0.7"/>
<path d="M550.4,215.0C803.84,215.0 930.56,125.0 1184.0,125.0" stroke="#8b9bac" stroke-width="1.4" fill="none" stroke-dasharray="4,4" marker-end="url(#ad)" opacity="0.7"/>
<path d="M1011.2,580C1080.32,580 1114.88,145.0 1184.0,145.0" stroke="#8b9bac" stroke-width="1.4" fill="none" stroke-dasharray="4,4" marker-end="url(#ad)" opacity="0.7"/>
<path d="M761.6,370.0C930.5600000000001,370.0 1015.04,131.66666666666666 1184.0,131.66666666666666" stroke="#8b9bac" stroke-width="1.4" fill="none" stroke-dasharray="4,4" marker-end="url(#ad)" opacity="0.7"/>
<path d="M608.0,545.0C723.2,545.0 780.8,860.0 896.0,860.0" stroke="#8b9bac" stroke-width="1.4" fill="none" stroke-dasharray="4,4" marker-end="url(#ad)" opacity="0.7"/>
<path d="M992.0,735C1076.48,735 1118.72,930.0 1203.2,930.0" stroke="#8b9bac" stroke-width="1.4" fill="none" stroke-dasharray="4,4" marker-end="url(#ad)" opacity="0.7"/>
<path d="M992.0,390.0C1052.0,390.0 932.0,435.0 992.0,435.0" stroke="#8b9bac" stroke-width="1.4" fill="none" stroke-dasharray="4,4" marker-end="url(#ad)" opacity="0.7"/>
<path d="M896.0,525.0C1011.2,525.0 1068.8,138.33333333333334 1184.0,138.33333333333334" stroke="#8b9bac" stroke-width="1.4" fill="none" stroke-dasharray="4,4" marker-end="url(#ad)" opacity="0.7"/>
<line x1="80.0" y1="80" x2="80.0" y2="970" stroke="#e1e4e8" stroke-width="1"/><text x="80.0" y="45" text-anchor="middle" font-size="16" font-family="sans-serif" fill="#95a5a6" font-weight="bold">1950s</text>
<line x1="272.0" y1="80" x2="272.0" y2="970" stroke="#e1e4e8" stroke-width="1"/><text x="272.0" y="45" text-anchor="middle" font-size="16" font-family="sans-serif" fill="#95a5a6" font-weight="bold">1960s</text>
<line x1="464.0" y1="80" x2="464.0" y2="970" stroke="#e1e4e8" stroke-width="1"/><text x="464.0" y="45" text-anchor="middle" font-size="16" font-family="sans-serif" fill="#95a5a6" font-weight="bold">1970s</text>
<line x1="656.0" y1="80" x2="656.0" y2="970" stroke="#e1e4e8" stroke-width="1"/><text x="656.0" y="45" text-anchor="middle" font-size="16" font-family="sans-serif" fill="#95a5a6" font-weight="bold">1980s</text>
<line x1="848.0" y1="80" x2="848.0" y2="970" stroke="#e1e4e8" stroke-width="1"/><text x="848.0" y="45" text-anchor="middle" font-size="16" font-family="sans-serif" fill="#95a5a6" font-weight="bold">1990s</text>
<line x1="1040.0" y1="80" x2="1040.0" y2="970" stroke="#e1e4e8" stroke-width="1"/><text x="1040.0" y="45" text-anchor="middle" font-size="16" font-family="sans-serif" fill="#95a5a6" font-weight="bold">2000s</text>
<line x1="1232.0" y1="80" x2="1232.0" y2="970" stroke="#e1e4e8" stroke-width="1"/><text x="1232.0" y="45" text-anchor="middle" font-size="16" font-family="sans-serif" fill="#95a5a6" font-weight="bold">2010s</text>
<line x1="1424.0" y1="80" x2="1424.0" y2="970" stroke="#e1e4e8" stroke-width="1"/><text x="1424.0" y="45" text-anchor="middle" font-size="16" font-family="sans-serif" fill="#95a5a6" font-weight="bold">2020s</text>
<text x="30" y="180" transform="rotate(-90 30 180)" font-size="14" font-family="sans-serif" fill="#4a7cba" font-weight="bold" opacity="0.6" letter-spacing="3">PROCEDURAL</text>
<text x="30" y="380" transform="rotate(-90 30 380)" font-size="14" font-family="sans-serif" fill="#55a049" font-weight="bold" opacity="0.6" letter-spacing="3">OOP</text>
<text x="30" y="580" transform="rotate(-90 30 580)" font-size="14" font-family="sans-serif" fill="#d4a017" font-weight="bold" opacity="0.6" letter-spacing="3">FUNCTIONAL</text>
<text x="30" y="780" transform="rotate(-90 30 780)" font-size="14" font-family="sans-serif" fill="#8e44ad" font-weight="bold" opacity="0.6" letter-spacing="3">SCRIPTING</text>
<text x="30" y="940" transform="rotate(-90 30 940)" font-size="14" font-family="sans-serif" fill="#c0392b" font-weight="bold" opacity="0.6" letter-spacing="3">CONCURRENT</text>
<g><rect x="166.4" y="164.0" width="96" height="32" rx="6" ry="6" fill="#ffffff" fill-opacity="0.9" stroke="#4a7cba" stroke-width="1.8"/><text x="214.4" y="179" text-anchor="middle" font-size="12" font-family="sans-serif" font-weight="bold" fill="#2c3e50">FORTRAN</text><text x="214.4" y="192" text-anchor="middle" font-size="9" font-family="sans-serif" fill="#7f8c8d">1957</text></g>
<g><rect x="224.0" y="119.0" width="96" height="32" rx="6" ry="6" fill="#ffffff" fill-opacity="0.9" stroke="#4a7cba" stroke-width="1.8"/><text x="272.0" y="134" text-anchor="middle" font-size="12" font-family="sans-serif" font-weight="bold" fill="#2c3e50">ALGOL 60</text><text x="272.0" y="147" text-anchor="middle" font-size="9" font-family="sans-serif" fill="#7f8c8d">1960</text></g>
<g><rect x="377.6" y="164.0" width="96" height="32" rx="6" ry="6" fill="#ffffff" fill-opacity="0.9" stroke="#4a7cba" stroke-width="1.8"/><text x="425.6" y="179" text-anchor="middle" font-size="12" font-family="sans-serif" font-weight="bold" fill="#2c3e50">ALGOL 68</text><text x="425.6" y="192" text-anchor="middle" font-size="9" font-family="sans-serif" fill="#7f8c8d">1968</text></g>
<g><rect x="416.0" y="74.0" width="96" height="32" rx="6" ry="6" fill="#ffffff" fill-opacity="0.9" stroke="#4a7cba" stroke-width="1.8"/><text x="464.0" y="89" text-anchor="middle" font-size="12" font-family="sans-serif" font-weight="bold" fill="#2c3e50">Pascal</text><text x="464.0" y="102" text-anchor="middle" font-size="9" font-family="sans-serif" fill="#7f8c8d">1970</text></g>
<g><rect x="396.8" y="119.0" width="96" height="32" rx="6" ry="6" fill="#ffffff" fill-opacity="0.9" stroke="#4a7cba" stroke-width="1.8"/><text x="444.8" y="134" text-anchor="middle" font-size="12" font-family="sans-serif" font-weight="bold" fill="#2c3e50">BCPL / B</text><text x="444.8" y="147" text-anchor="middle" font-size="9" font-family="sans-serif" fill="#7f8c8d">1969</text></g>
<g><rect x="454.4" y="209.0" width="96" height="32" rx="6" ry="6" fill="#ffffff" fill-opacity="0.9" stroke="#4a7cba" stroke-width="1.8"/><text x="502.4" y="224" text-anchor="middle" font-size="12" font-family="sans-serif" font-weight="bold" fill="#2c3e50">C</text><text x="502.4" y="237" text-anchor="middle" font-size="9" font-family="sans-serif" fill="#7f8c8d">1972</text></g>
<g><rect x="608.0" y="164.0" width="96" height="32" rx="6" ry="6" fill="#ffffff" fill-opacity="0.9" stroke="#4a7cba" stroke-width="1.8"/><text x="656.0" y="179" text-anchor="middle" font-size="12" font-family="sans-serif" font-weight="bold" fill="#2c3e50">Ada</text><text x="656.0" y="192" text-anchor="middle" font-size="9" font-family="sans-serif" fill="#7f8c8d">1980</text></g>
<g><rect x="1164.8" y="164.0" width="96" height="32" rx="6" ry="6" fill="#ffffff" fill-opacity="0.9" stroke="#4a7cba" stroke-width="1.8"/><text x="1212.8" y="179" text-anchor="middle" font-size="12" font-family="sans-serif" font-weight="bold" fill="#2c3e50">Go</text><text x="1212.8" y="192" text-anchor="middle" font-size="9" font-family="sans-serif" fill="#7f8c8d">2009</text></g>
<g><rect x="1184.0" y="119.0" width="96" height="32" rx="6" ry="6" fill="#ffffff" fill-opacity="0.9" stroke="#4a7cba" stroke-width="1.8"/><text x="1232.0" y="134" text-anchor="middle" font-size="12" font-family="sans-serif" font-weight="bold" fill="#2c3e50">Rust</text><text x="1232.0" y="147" text-anchor="middle" font-size="9" font-family="sans-serif" fill="#7f8c8d">2010</text></g>
<g><rect x="1299.2" y="209.0" width="96" height="32" rx="6" ry="6" fill="#ffffff" fill-opacity="0.9" stroke="#4a7cba" stroke-width="1.8"/><text x="1347.2" y="224" text-anchor="middle" font-size="12" font-family="sans-serif" font-weight="bold" fill="#2c3e50">Zig</text><text x="1347.2" y="237" text-anchor="middle" font-size="9" font-family="sans-serif" fill="#7f8c8d">2016</text></g>
<g><rect x="358.4" y="364.0" width="96" height="32" rx="6" ry="6" fill="#ffffff" fill-opacity="0.9" stroke="#55a049" stroke-width="1.8"/><text x="406.4" y="379" text-anchor="middle" font-size="12" font-family="sans-serif" font-weight="bold" fill="#2c3e50">Simula 67</text><text x="406.4" y="392" text-anchor="middle" font-size="9" font-family="sans-serif" fill="#7f8c8d">1967</text></g>
<g><rect x="454.4" y="319.0" width="96" height="32" rx="6" ry="6" fill="#ffffff" fill-opacity="0.9" stroke="#55a049" stroke-width="1.8"/><text x="502.4" y="334" text-anchor="middle" font-size="12" font-family="sans-serif" font-weight="bold" fill="#2c3e50">Smalltalk</text><text x="502.4" y="347" text-anchor="middle" font-size="9" font-family="sans-serif" fill="#7f8c8d">1972</text></g>
<g><rect x="665.6" y="364.0" width="96" height="32" rx="6" ry="6" fill="#ffffff" fill-opacity="0.9" stroke="#55a049" stroke-width="1.8"/><text x="713.6" y="379" text-anchor="middle" font-size="12" font-family="sans-serif" font-weight="bold" fill="#2c3e50">C++</text><text x="713.6" y="392" text-anchor="middle" font-size="9" font-family="sans-serif" fill="#7f8c8d">1983</text></g>
<g><rect x="684.8" y="319.0" width="96" height="32" rx="6" ry="6" fill="#ffffff" fill-opacity="0.9" stroke="#55a049" stroke-width="1.8"/><text x="732.8" y="334" text-anchor="middle" font-size="12" font-family="sans-serif" font-weight="bold" fill="#2c3e50">Objective-C</text><text x="732.8" y="347" text-anchor="middle" font-size="9" font-family="sans-serif" fill="#7f8c8d">1984</text></g>
<g><rect x="704.0" y="409.0" width="96" height="32" rx="6" ry="6" fill="#ffffff" fill-opacity="0.9" stroke="#55a049" stroke-width="1.8"/><text x="752.0" y="424" text-anchor="middle" font-size="12" font-family="sans-serif" font-weight="bold" fill="#2c3e50">Eiffel</text><text x="752.0" y="437" text-anchor="middle" font-size="9" font-family="sans-serif" fill="#7f8c8d">1985</text></g>
<g><rect x="896.0" y="364.0" width="96" height="32" rx="6" ry="6" fill="#ffffff" fill-opacity="0.9" stroke="#55a049" stroke-width="1.8"/><text x="944.0" y="379" text-anchor="middle" font-size="12" font-family="sans-serif" font-weight="bold" fill="#2c3e50">Java</text><text x="944.0" y="392" text-anchor="middle" font-size="9" font-family="sans-serif" fill="#7f8c8d">1995</text></g>
<g><rect x="896.0" y="319.0" width="96" height="32" rx="6" ry="6" fill="#ffffff" fill-opacity="0.9" stroke="#55a049" stroke-width="1.8"/><text x="944.0" y="334" text-anchor="middle" font-size="12" font-family="sans-serif" font-weight="bold" fill="#2c3e50">Delphi</text><text x="944.0" y="347" text-anchor="middle" font-size="9" font-family="sans-serif" fill="#7f8c8d">1995</text></g>
<g><rect x="992.0" y="409.0" width="96" height="32" rx="6" ry="6" fill="#ffffff" fill-opacity="0.9" stroke="#55a049" stroke-width="1.8"/><text x="1040.0" y="424" text-anchor="middle" font-size="12" font-family="sans-serif" font-weight="bold" fill="#2c3e50">C#</text><text x="1040.0" y="437" text-anchor="middle" font-size="9" font-family="sans-serif" fill="#7f8c8d">2000</text></g>
<g><rect x="1011.2" y="274.0" width="96" height="32" rx="6" ry="6" fill="#ffffff" fill-opacity="0.9" stroke="#55a049" stroke-width="1.8"/><text x="1059.2" y="289" text-anchor="middle" font-size="12" font-family="sans-serif" font-weight="bold" fill="#2c3e50">D</text><text x="1059.2" y="302" text-anchor="middle" font-size="9" font-family="sans-serif" fill="#7f8c8d">2001</text></g>
<g><rect x="1068.8" y="364.0" width="96" height="32" rx="6" ry="6" fill="#ffffff" fill-opacity="0.9" stroke="#55a049" stroke-width="1.8"/><text x="1116.8" y="379" text-anchor="middle" font-size="12" font-family="sans-serif" font-weight="bold" fill="#2c3e50">Scala</text><text x="1116.8" y="392" text-anchor="middle" font-size="9" font-family="sans-serif" fill="#7f8c8d">2004</text></g>
<g><rect x="1203.2" y="319.0" width="96" height="32" rx="6" ry="6" fill="#ffffff" fill-opacity="0.9" stroke="#55a049" stroke-width="1.8"/><text x="1251.2" y="334" text-anchor="middle" font-size="12" font-family="sans-serif" font-weight="bold" fill="#2c3e50">Kotlin</text><text x="1251.2" y="347" text-anchor="middle" font-size="9" font-family="sans-serif" fill="#7f8c8d">2011</text></g>
<g><rect x="1260.8" y="364.0" width="96" height="32" rx="6" ry="6" fill="#ffffff" fill-opacity="0.9" stroke="#55a049" stroke-width="1.8"/><text x="1308.8" y="379" text-anchor="middle" font-size="12" font-family="sans-serif" font-weight="bold" fill="#2c3e50">Swift</text><text x="1308.8" y="392" text-anchor="middle" font-size="9" font-family="sans-serif" fill="#7f8c8d">2014</text></g>
<g><rect x="185.6" y="564.0" width="96" height="32" rx="6" ry="6" fill="#ffffff" fill-opacity="0.9" stroke="#d4a017" stroke-width="1.8"/><text x="233.6" y="579" text-anchor="middle" font-size="12" font-family="sans-serif" font-weight="bold" fill="#2c3e50">Lisp</text><text x="233.6" y="592" text-anchor="middle" font-size="9" font-family="sans-serif" fill="#7f8c8d">1958</text></g>
<g><rect x="512.0" y="519.0" width="96" height="32" rx="6" ry="6" fill="#ffffff" fill-opacity="0.9" stroke="#d4a017" stroke-width="1.8"/><text x="560.0" y="534" text-anchor="middle" font-size="12" font-family="sans-serif" font-weight="bold" fill="#2c3e50">Scheme</text><text x="560.0" y="547" text-anchor="middle" font-size="9" font-family="sans-serif" fill="#7f8c8d">1975</text></g>
<g><rect x="473.6" y="564.0" width="96" height="32" rx="6" ry="6" fill="#ffffff" fill-opacity="0.9" stroke="#d4a017" stroke-width="1.8"/><text x="521.6" y="579" text-anchor="middle" font-size="12" font-family="sans-serif" font-weight="bold" fill="#2c3e50">ML</text><text x="521.6" y="592" text-anchor="middle" font-size="9" font-family="sans-serif" fill="#7f8c8d">1973</text></g>
<g><rect x="684.8" y="564.0" width="96" height="32" rx="6" ry="6" fill="#ffffff" fill-opacity="0.9" stroke="#d4a017" stroke-width="1.8"/><text x="732.8" y="579" text-anchor="middle" font-size="12" font-family="sans-serif" font-weight="bold" fill="#2c3e50">Standard ML</text><text x="732.8" y="592" text-anchor="middle" font-size="9" font-family="sans-serif" fill="#7f8c8d">1984</text></g>
<g><rect x="800.0" y="519.0" width="96" height="32" rx="6" ry="6" fill="#ffffff" fill-opacity="0.9" stroke="#d4a017" stroke-width="1.8"/><text x="848.0" y="534" text-anchor="middle" font-size="12" font-family="sans-serif" font-weight="bold" fill="#2c3e50">Haskell</text><text x="848.0" y="547" text-anchor="middle" font-size="9" font-family="sans-serif" fill="#7f8c8d">1990</text></g>
<g><rect x="915.2" y="564.0" width="96" height="32" rx="6" ry="6" fill="#ffffff" fill-opacity="0.9" stroke="#d4a017" stroke-width="1.8"/><text x="963.2" y="579" text-anchor="middle" font-size="12" font-family="sans-serif" font-weight="bold" fill="#2c3e50">OCaml</text><text x="963.2" y="592" text-anchor="middle" font-size="9" font-family="sans-serif" fill="#7f8c8d">1996</text></g>
<g><rect x="1222.4" y="564.0" width="96" height="32" rx="6" ry="6" fill="#ffffff" fill-opacity="0.9" stroke="#d4a017" stroke-width="1.8"/><text x="1270.4" y="579" text-anchor="middle" font-size="12" font-family="sans-serif" font-weight="bold" fill="#2c3e50">Julia</text><text x="1270.4" y="592" text-anchor="middle" font-size="9" font-family="sans-serif" fill="#7f8c8d">2012</text></g>
<g><rect x="300.8" y="209.0" width="96" height="32" rx="6" ry="6" fill="#ffffff" fill-opacity="0.9" stroke="#4a7cba" stroke-width="1.8"/><text x="348.8" y="224" text-anchor="middle" font-size="12" font-family="sans-serif" font-weight="bold" fill="#2c3e50">BASIC</text><text x="348.8" y="237" text-anchor="middle" font-size="9" font-family="sans-serif" fill="#7f8c8d">1964</text></g>
<g><rect x="742.4" y="719.0" width="96" height="32" rx="6" ry="6" fill="#ffffff" fill-opacity="0.9" stroke="#8e44ad" stroke-width="1.8"/><text x="790.4" y="734" text-anchor="middle" font-size="12" font-family="sans-serif" font-weight="bold" fill="#2c3e50">Perl</text><text x="790.4" y="747" text-anchor="middle" font-size="9" font-family="sans-serif" fill="#7f8c8d">1987</text></g>
<g><rect x="819.2" y="809.0" width="96" height="32" rx="6" ry="6" fill="#ffffff" fill-opacity="0.9" stroke="#8e44ad" stroke-width="1.8"/><text x="867.2" y="824" text-anchor="middle" font-size="12" font-family="sans-serif" font-weight="bold" fill="#2c3e50">Python</text><text x="867.2" y="837" text-anchor="middle" font-size="9" font-family="sans-serif" fill="#7f8c8d">1991</text></g>
<g><rect x="896.0" y="719.0" width="96" height="32" rx="6" ry="6" fill="#ffffff" fill-opacity="0.9" stroke="#8e44ad" stroke-width="1.8"/><text x="944.0" y="734" text-anchor="middle" font-size="12" font-family="sans-serif" font-weight="bold" fill="#2c3e50">Ruby</text><text x="944.0" y="747" text-anchor="middle" font-size="9" font-family="sans-serif" fill="#7f8c8d">1995</text></g>
<g><rect x="876.8" y="764.0" width="96" height="32" rx="6" ry="6" fill="#ffffff" fill-opacity="0.9" stroke="#8e44ad" stroke-width="1.8"/><text x="924.8" y="779" text-anchor="middle" font-size="12" font-family="sans-serif" font-weight="bold" fill="#2c3e50">PHP</text><text x="924.8" y="792" text-anchor="middle" font-size="9" font-family="sans-serif" fill="#7f8c8d">1994</text></g>
<g><rect x="857.6" y="674.0" width="96" height="32" rx="6" ry="6" fill="#ffffff" fill-opacity="0.9" stroke="#8e44ad" stroke-width="1.8"/><text x="905.6" y="689" text-anchor="middle" font-size="12" font-family="sans-serif" font-weight="bold" fill="#2c3e50">Lua</text><text x="905.6" y="702" text-anchor="middle" font-size="9" font-family="sans-serif" fill="#7f8c8d">1993</text></g>
<g><rect x="896.0" y="854.0" width="96" height="32" rx="6" ry="6" fill="#ffffff" fill-opacity="0.9" stroke="#8e44ad" stroke-width="1.8"/><text x="944.0" y="869" text-anchor="middle" font-size="12" font-family="sans-serif" font-weight="bold" fill="#2c3e50">JavaScript</text><text x="944.0" y="882" text-anchor="middle" font-size="9" font-family="sans-serif" fill="#7f8c8d">1995</text></g>
<g><rect x="1222.4" y="764.0" width="96" height="32" rx="6" ry="6" fill="#ffffff" fill-opacity="0.9" stroke="#8e44ad" stroke-width="1.8"/><text x="1270.4" y="779" text-anchor="middle" font-size="12" font-family="sans-serif" font-weight="bold" fill="#2c3e50">TypeScript</text><text x="1270.4" y="792" text-anchor="middle" font-size="9" font-family="sans-serif" fill="#7f8c8d">2012</text></g>
<g><rect x="723.2" y="764.0" width="96" height="32" rx="6" ry="6" fill="#ffffff" fill-opacity="0.9" stroke="#8e44ad" stroke-width="1.8"/><text x="771.2" y="779" text-anchor="middle" font-size="12" font-family="sans-serif" font-weight="bold" fill="#2c3e50">Self</text><text x="771.2" y="792" text-anchor="middle" font-size="9" font-family="sans-serif" fill="#7f8c8d">1986</text></g>
<g><rect x="569.6" y="924.0" width="96" height="32" rx="6" ry="6" fill="#ffffff" fill-opacity="0.9" stroke="#c0392b" stroke-width="1.8"/><text x="617.6" y="939" text-anchor="middle" font-size="12" font-family="sans-serif" font-weight="bold" fill="#2c3e50">CSP</text><text x="617.6" y="952" text-anchor="middle" font-size="9" font-family="sans-serif" fill="#7f8c8d">1978</text></g>
<g><rect x="723.2" y="924.0" width="96" height="32" rx="6" ry="6" fill="#ffffff" fill-opacity="0.9" stroke="#c0392b" stroke-width="1.8"/><text x="771.2" y="939" text-anchor="middle" font-size="12" font-family="sans-serif" font-weight="bold" fill="#2c3e50">Erlang</text><text x="771.2" y="952" text-anchor="middle" font-size="9" font-family="sans-serif" fill="#7f8c8d">1986</text></g>
<g><rect x="1203.2" y="924.0" width="96" height="32" rx="6" ry="6" fill="#ffffff" fill-opacity="0.9" stroke="#c0392b" stroke-width="1.8"/><text x="1251.2" y="939" text-anchor="middle" font-size="12" font-family="sans-serif" font-weight="bold" fill="#2c3e50">Elixir</text><text x="1251.2" y="952" text-anchor="middle" font-size="9" font-family="sans-serif" fill="#7f8c8d">2011</text></g>
</svg>
